<?xml version="1.0" encoding="UTF-8"?><svg id="Layer_1" xmlns="http://www.w3.org/2000/svg" viewBox="0 0 400 400"><defs><style>.cls-1{fill:none;}.cls-2{fill:#231f20;}</style></defs><g><rect class="cls-1" x="74.94" y="110.17" width="250.13" height="179.67" rx="27.16" ry="27.16"/><path class="cls-2" d="m297.91,291.83H102.09c-16.08,0-29.16-13.08-29.16-29.16v-125.36c0-16.08,13.08-29.16,29.16-29.16h195.82c16.08,0,29.16,13.08,29.16,29.16v125.36c0,16.08-13.08,29.16-29.16,29.16ZM102.09,112.17c-13.87,0-25.16,11.28-25.16,25.16v125.36c0,13.87,11.29,25.16,25.16,25.16h195.82c13.87,0,25.16-11.28,25.16-25.16v-125.36c0-13.87-11.29-25.16-25.16-25.16H102.09Z"/></g><g><rect class="cls-2" x="206.99" y="118.44" width="48.32" height="48.32" rx="24.16" ry="24.16"/><path class="cls-2" d="m261.22,223.85l-60.93-53.05c1.45-6.25-1.56-12.88-7.59-15.74-6.95-3.31-15.27-.35-18.58,6.61l-25.58,53.82c-.69,1.45-1.09,2.95-1.26,4.46-.53,2.73-.03,5.65,1.59,8.13.55,1.02,1.23,1.98,2.03,2.85l19.15,26.47h-22.83c-6.13,0-11.1,4.97-11.1,11.1s4.97,11.1,11.1,11.1h44.49c2.85,0,5.45-1.09,7.41-2.85l.59-.43c4.97-3.59,6.08-10.54,2.49-15.51l-17.34-23.97,28.09-7.06v39.74c0,6.64,5.38,12.02,12.02,12.02s12.02-5.38,12.02-12.02v-46.2l14.03,12.22c3.23,2.81,8.13,2.47,10.94-.76,2.81-3.23,2.47-8.13-.76-10.94Zm-80.69-10.71l13.1-27.57,21.64,18.84-34.74,8.73Z"/></g><g><path d="m104.65,140.68h-1.77c-.1-.74-.46-1.3-1.29-1.3s-1.35.71-1.35,2.29.52,2.27,1.35,2.27c.57,0,1.16-.29,1.33-1.35h1.79c-.25,1.9-1.74,2.73-3.15,2.73-2.04,0-3.2-1.53-3.2-3.65s1.18-3.67,3.24-3.67c1.36,0,2.83.82,3.04,2.68Z"/><path d="m108.3,136.29h1.87v1.87h2.73v1.42h-2.73v3.38c0,.66.22.79.77.79h1.94v1.4h-2.63c-1.52,0-1.95-.51-1.95-1.9v-3.68h-2.03v-1.42h2.03v-1.87Z"/><path d="m118.73,138.16v1.18c.29-.6.83-1.18,1.94-1.18h1.07v1.5h-1.34c-1.18,0-1.64.56-1.64,1.92v2.17h2.54v1.4h-6.15v-1.4h1.74v-4.17h-1.74v-1.42h3.59Z"/><path d="m123.84,145.15v-1.4h2.03v-6.63h-2.03v-1.39h3.9v8.02h2.03v1.4h-5.93Z"/></g></svg>